<svg width="123" height="33" viewBox="0 0 123 33" fill="none" xmlns="http://www.w3.org/2000/svg">
<g clip-path="url(#clip0_7002_3073)">
<path d="M27.9399 24.5875C27.1326 23.6017 26.1541 22.2909 26.1437 20.655C26.1402 19.9944 26.3778 19.0121 26.8461 18.1068C27.4192 16.9952 28.2334 15.7753 27.3004 13.9401C26.3813 12.3707 24.6794 11.3115 22.7294 11.3115C19.8045 11.3115 17.4316 13.685 17.4316 16.6107V26.7127C17.4316 29.6385 19.8045 32.0119 22.7294 32.0119C25.6544 32.0119 28.0273 29.6385 28.0273 26.7127V24.6993L27.9399 24.5944V24.5875Z" fill="white"/>
<path d="M26.846 18.1069C27.3877 17.0582 28.139 15.9187 27.4471 14.2549C27.0207 14.143 26.5769 14.0801 26.1156 14.0801H5.51851C2.59353 14.0801 0.220703 16.4535 0.220703 19.3793C0.220703 22.305 2.59353 24.6785 5.51851 24.6785H26.1191C26.7027 24.6785 27.2654 24.5806 27.7931 24.4058C27.0207 23.4445 26.1576 22.1931 26.1436 20.6586C26.1401 19.998 26.3777 19.0157 26.846 18.1104V18.1069Z" fill="white"/>
<path d="M28.457 14.6396C28.8938 16.0973 28.2194 17.1459 27.7197 18.1107C27.2514 19.0195 27.0102 19.9983 27.0172 20.6589C27.0277 22.0536 27.7406 23.2106 28.45 24.1334C30.2043 23.2701 31.4134 21.4699 31.4134 19.3831C31.4134 17.2997 30.2078 15.503 28.457 14.6396Z" fill="white"/>
<path d="M22.7292 10.1789C25.5393 10.1789 27.8174 7.90029 27.8174 5.08946C27.8174 2.27863 25.5393 0 22.7292 0C19.9191 0 17.6411 2.27863 17.6411 5.08946C17.6411 7.90029 19.9191 10.1789 22.7292 10.1789Z" fill="white"/>
<path d="M16.6103 11.9857C16.6103 9.05905 14.2384 6.68652 11.3125 6.68652C8.38656 6.68652 6.01465 9.05905 6.01465 11.9857V26.7123C6.01465 29.6389 8.38656 32.0115 11.3125 32.0115C14.2384 32.0115 16.6103 29.6389 16.6103 26.7123V11.9857Z" fill="white"/>
<path d="M36.7285 10.0352V32.0079" stroke="white" stroke-width="0.280629" stroke-miterlimit="10"/>
<path d="M56.4874 10.2666H60.3664V31.6032H56.4874V22.1513H47.2232V31.6032H43.3442V10.2666H47.2232V18.7956H56.4874V10.2666Z" fill="white"/>
<path d="M61.8726 23.6296C61.8726 22.2139 62.0822 20.973 62.5051 19.9034C62.9244 18.8373 63.4836 17.9494 64.1825 17.2398C64.8814 16.5302 65.6817 15.9989 66.5833 15.6389C67.4849 15.2789 68.4109 15.1006 69.3545 15.1006C71.5701 15.1006 73.2999 15.7892 74.5405 17.1629C75.781 18.5402 76.4031 20.592 76.4031 23.322C76.4031 23.5283 76.3961 23.759 76.3891 24.0141C76.3786 24.2728 76.3646 24.5035 76.3437 24.7062H65.7236C65.8249 25.9996 66.2827 26.9993 67.0935 27.7089C67.9042 28.4185 69.0784 28.7715 70.6195 28.7715C71.5211 28.7715 72.3494 28.6911 73.0972 28.5268C73.845 28.3625 74.4356 28.1878 74.8655 28.0025L75.3582 31.0506C75.152 31.1554 74.869 31.2603 74.5125 31.3757C74.1526 31.4875 73.7437 31.5924 73.2824 31.6833C72.8211 31.7742 72.3214 31.8511 71.7902 31.914C71.2555 31.9769 70.7139 32.0049 70.1582 32.0049C68.7429 32.0049 67.5093 31.7951 66.4645 31.3722C65.4196 30.9527 64.5564 30.3655 63.8785 29.6174C63.2005 28.8694 62.6973 27.985 62.3688 26.9678C62.0403 25.9506 61.8761 24.8391 61.8761 23.6261L61.8726 23.6296ZM72.6778 21.9658C72.6778 21.4519 72.6045 20.966 72.4612 20.5046C72.3179 20.0432 72.1082 19.6412 71.8287 19.3022C71.5491 18.9631 71.2136 18.6975 70.8117 18.5017C70.4099 18.306 69.9346 18.2081 69.3789 18.2081C68.8233 18.2081 68.3026 18.3165 67.8693 18.5297C67.4394 18.7464 67.0725 19.026 66.7755 19.3756C66.4784 19.7251 66.2478 20.1236 66.0835 20.578C65.9193 21.029 65.8075 21.4904 65.7446 21.9623H72.6709L72.6778 21.9658Z" fill="white"/>
<path d="M83.7209 31.9103C82.6131 31.8894 81.694 31.767 80.9672 31.5398C80.2368 31.3126 79.6602 30.991 79.2268 30.5716C78.797 30.1521 78.493 29.6278 78.3182 29.0021C78.1435 28.3764 78.0562 27.6633 78.0562 26.8628V8.32615L81.7814 7.71094V26.1532C81.7814 26.6042 81.8163 26.9852 81.8897 27.2928C81.9631 27.6004 82.0889 27.8625 82.2741 28.0793C82.4593 28.296 82.711 28.4603 83.029 28.5721C83.347 28.684 83.7523 28.7714 84.2451 28.8343L83.7209 31.9138V31.9103Z" fill="white"/>
<path d="M92.8345 7.71094C93.6138 7.71094 94.2743 7.77386 94.8194 7.8962C95.3646 8.01854 95.7874 8.14438 96.0985 8.26672L95.5149 11.2833C95.2283 11.182 94.8823 11.0876 94.484 11.0072C94.0821 10.9268 93.6487 10.8849 93.177 10.8849C91.9469 10.8849 91.0977 11.2134 90.6364 11.8706C90.1751 12.5277 89.9445 13.3807 89.9445 14.4258V15.5024H95.8538V18.6134H89.9445V31.6062H86.2192V14.3629C86.2192 12.2691 86.7644 10.6367 87.8512 9.46568C88.938 8.29469 90.6015 7.71094 92.838 7.71094H92.8345Z" fill="white"/>
<path d="M102.986 23.6296C102.986 22.2139 103.196 20.973 103.619 19.9034C104.038 18.8373 104.597 17.9494 105.296 17.2398C105.995 16.5302 106.795 15.9989 107.697 15.6389C108.599 15.2789 109.525 15.1006 110.468 15.1006C112.684 15.1006 114.414 15.7892 115.654 17.1629C116.895 18.5402 117.517 20.592 117.517 23.322C117.517 23.5283 117.51 23.759 117.503 24.0141C117.492 24.2728 117.478 24.5035 117.457 24.7062H106.837C106.939 25.9996 107.397 26.9993 108.207 27.7089C109.018 28.4185 110.192 28.7715 111.733 28.7715C112.635 28.7715 113.463 28.6911 114.211 28.5268C114.959 28.3625 115.549 28.1878 115.979 28.0025L116.472 31.0506C116.266 31.1554 115.983 31.2603 115.626 31.3757C115.27 31.491 114.857 31.5924 114.396 31.6833C113.935 31.7742 113.435 31.8511 112.904 31.914C112.369 31.9769 111.828 32.0049 111.272 32.0049C109.857 32.0049 108.623 31.7951 107.578 31.3722C106.533 30.9527 105.67 30.3655 104.992 29.6174C104.314 28.8694 103.811 27.985 103.483 26.9678C103.154 25.9506 102.99 24.8391 102.99 23.6261L102.986 23.6296ZM113.792 21.9658C113.792 21.4519 113.718 20.966 113.575 20.5046C113.432 20.0432 113.222 19.6412 112.942 19.3022C112.663 18.9631 112.327 18.6975 111.925 18.5017C111.524 18.306 111.048 18.2081 110.493 18.2081C109.937 18.2081 109.416 18.3165 108.983 18.5297C108.553 18.7464 108.186 19.026 107.889 19.3756C107.592 19.7251 107.362 20.1236 107.197 20.578C107.033 21.029 106.921 21.4904 106.858 21.9623H113.785L113.792 21.9658Z" fill="white"/>
<path d="M101.83 10.7904C101.83 11.4895 101.602 12.0418 101.152 12.4543C100.701 12.8668 100.166 13.0695 99.5511 13.0695C98.9361 13.0695 98.37 12.8633 97.9192 12.4543C97.4684 12.0453 97.2412 11.4895 97.2412 10.7904C97.2412 10.0913 97.4684 9.50758 97.9192 9.09861C98.37 8.68963 98.9151 8.4834 99.5511 8.4834C100.187 8.4834 100.701 8.68963 101.152 9.09861C101.602 9.51108 101.83 10.0739 101.83 10.7904Z" fill="white"/>
<path d="M101.397 15.499H97.6714V31.6028H101.397V15.499Z" fill="white"/>
<path d="M120.512 17.03C121.809 17.03 122.86 15.9783 122.86 14.681C122.86 13.3837 121.809 12.332 120.512 12.332C119.215 12.332 118.164 13.3837 118.164 14.681C118.164 15.9783 119.215 17.03 120.512 17.03Z" stroke="white" stroke-width="0.39288" stroke-miterlimit="10"/>
<path d="M119.918 13.4512H120.275L121.271 15.7652H120.799L120.582 15.2339H119.579L119.369 15.7652H118.908L119.915 13.4512H119.918ZM120.442 14.8843L120.086 13.944L119.722 14.8843H120.442Z" fill="white"/>
<path d="M121.368 13.4512H121.781V15.7652H121.368V13.4512Z" fill="white"/>
</g>
<defs>
<clipPath id="clip0_7002_3073">
<rect width="122.639" height="32.012" fill="white" transform="translate(0.220703)"/>
</clipPath>
</defs>
</svg>
