<svg width="100" height="26" viewBox="0 0 100 26" fill="none" xmlns="http://www.w3.org/2000/svg">
<path d="M88.2969 15.4889C88.2969 14.4422 88.4643 13.5211 88.7574 12.7256C89.0924 11.9302 89.511 11.2603 90.0553 10.7579C90.5996 10.2136 91.1858 9.83676 91.8557 9.54368C92.5674 9.29247 93.2373 9.125 93.9909 9.125C95.6656 9.125 97.0054 9.62742 97.9684 10.6741C98.9313 11.6789 99.4337 13.2281 99.4337 15.1959C99.4337 17.1636 99.4337 15.6145 99.4337 15.8657C99.4337 16.117 99.4338 16.2844 99.3919 16.4938H91.7719C91.8557 17.2055 92.1906 17.7498 92.7349 18.1266C93.321 18.5453 94.0746 18.7546 95.0376 18.7546C96.0006 18.7546 96.2518 18.7546 96.8379 18.5872C97.4241 18.4616 97.9265 18.336 98.3033 18.1685L98.7639 20.8899C98.5964 20.9736 98.3452 21.0574 98.0521 21.1411C97.759 21.2248 97.4241 21.3086 97.0473 21.3504C96.6705 21.4342 96.2937 21.476 95.875 21.5179C95.4563 21.5598 95.0376 21.6017 94.6189 21.6017C93.5304 21.6017 92.6093 21.4342 91.8138 21.1411C91.0183 20.8062 90.3903 20.3875 89.846 19.8432C89.3436 19.2989 88.9668 18.629 88.6737 17.8754C88.4225 17.1218 88.2969 16.3263 88.2969 15.4471V15.4889ZM96.2099 14.2329C96.2099 13.9398 96.1262 13.6886 96.0424 13.3955C95.9587 13.1443 95.8331 12.8931 95.6656 12.6838C95.4982 12.4744 95.2888 12.307 94.9957 12.1814C94.7445 12.0558 94.4096 11.972 94.0328 11.972C93.656 11.972 93.321 12.0558 93.0698 12.1814C92.8186 12.307 92.5674 12.4744 92.3999 12.6838C92.2325 12.8931 92.065 13.1443 91.9813 13.4374C91.8975 13.6886 91.8138 13.9817 91.7719 14.2748H96.2099V14.2329Z" fill="white"/>
<path d="M77.7904 3.84961C78.4184 3.84961 78.9627 3.84961 79.3395 4.01708C79.7582 4.14268 80.135 4.22642 80.3862 4.35203L79.8 6.98971C79.5488 6.8641 79.2976 6.82223 79.0046 6.78037C78.7115 6.7385 78.4184 6.69663 78.1253 6.69663C77.8323 6.69663 77.3717 6.69663 77.0786 6.8641C76.8274 6.98971 76.5762 7.11531 76.4087 7.32465C76.2413 7.53399 76.1575 7.74333 76.0738 8.0364C76.0319 8.28761 75.9901 8.58069 75.9901 8.91563V9.50178H80.135V12.3069H75.9901V21.3923H72.6406V8.87376C72.6406 7.32465 73.0593 6.11048 73.9385 5.23125C74.8178 4.31016 76.1157 3.89148 77.7904 3.89148V3.84961ZM85.4941 21.3504H82.1447V9.45991H85.4941V21.3504ZM85.7872 6.02674C85.7872 6.65476 85.5778 7.11531 85.1591 7.49212C84.7823 7.82706 84.3218 7.99454 83.7775 7.99454C83.2332 7.99454 82.7727 7.82706 82.354 7.49212C81.9772 7.11531 81.7678 6.65476 81.7678 6.02674C81.7678 5.39872 81.9772 4.93818 82.354 4.56136C82.7727 4.18455 83.2332 4.01708 83.7775 4.01708C84.3218 4.01708 84.7823 4.18455 85.1591 4.56136C85.5778 4.89631 85.7872 5.39872 85.7872 6.02674Z" fill="white"/>
<path d="M70.0436 21.5626C69.0806 21.5626 68.2851 21.437 67.6571 21.2276C67.071 21.0183 66.5685 20.7671 66.1917 20.4321C65.8568 20.0553 65.6056 19.6366 65.48 19.1342C65.3544 18.6318 65.3125 18.0457 65.3125 17.4176V4.35483L68.6619 3.81055V16.7477C68.6619 17.0408 68.6619 17.3339 68.7457 17.5432C68.7875 17.7944 68.8713 18.0038 68.9969 18.1713C69.1225 18.3387 69.3318 18.4643 69.5412 18.5899C69.7924 18.7155 70.0855 18.7574 70.5041 18.7993L70.0436 21.5626Z" fill="white"/>
<path d="M51.3281 15.4889C51.3281 14.4422 51.4956 13.5211 51.7887 12.7256C52.1236 11.9302 52.5423 11.2603 53.0866 10.7579C53.6309 10.2136 54.217 9.83676 54.8869 9.54368C55.5987 9.29247 56.2685 9.125 57.0222 9.125C58.6969 9.125 60.0367 9.62742 60.9996 10.6741C61.9626 11.6789 62.465 13.2281 62.465 15.1959C62.465 17.1636 62.465 15.6145 62.465 15.8657C62.465 16.117 62.465 16.2844 62.4231 16.4938H54.8032C54.8869 17.2055 55.2218 17.7498 55.7661 18.1266C56.3523 18.5453 57.1059 18.7546 58.0689 18.7546C59.0318 18.7546 59.283 18.7546 59.8692 18.5872C60.4553 18.4616 60.9578 18.336 61.3346 18.1685L61.7951 20.8899C61.6276 20.9736 61.3764 21.0574 61.0834 21.1411C60.7903 21.2248 60.4553 21.3086 60.0785 21.3504C59.7017 21.4342 59.3249 21.476 58.9062 21.5179C58.4875 21.5598 58.0689 21.6017 57.6502 21.6017C56.5616 21.6017 55.6405 21.4342 54.845 21.1411C54.0495 20.8062 53.4215 20.3875 52.8772 19.8432C52.3748 19.2989 51.998 18.629 51.7049 17.8754C51.4537 17.1218 51.3281 16.3263 51.3281 15.4471V15.4889ZM59.1993 14.2329C59.1993 13.9398 59.1156 13.6886 59.0318 13.3955C58.9481 13.1443 58.8225 12.8931 58.655 12.6838C58.4875 12.4744 58.2782 12.307 57.9851 12.1814C57.7339 12.0558 57.399 11.972 57.0222 11.972C56.6454 11.972 56.3104 12.0558 56.0592 12.1814C55.808 12.307 55.5568 12.4744 55.3893 12.6838C55.2218 12.8931 55.0544 13.1443 54.9706 13.4374C54.8869 13.6886 54.8032 13.9817 54.7613 14.2748H59.1993V14.2329Z" fill="white"/>
<path d="M44.7133 5.69531H48.2302V21.3539H44.7133V14.6969H38.8099V21.3539H35.293V5.69531H38.8099V11.6824H44.7133V5.69531Z" fill="white"/>
<path d="M9.4592 26C8.37063 26 7.40767 25.372 6.90526 24.4928L12.0969 23.153C14.0647 22.6506 15.1951 20.6409 14.6927 18.6731C14.5252 18.0451 14.2321 17.5008 13.8135 17.0821C14.9858 16.2448 15.5719 14.6957 15.1951 13.1884C14.8183 11.8068 13.7297 10.8019 12.4318 10.5089C12.6412 9.83897 12.683 9.12721 12.5156 8.41546C12.0131 6.44767 10.0035 5.27536 8.07756 5.81965L6.57031 6.19646V2.93076C6.57031 1.29791 7.86822 0 9.50107 0H15.5301C17.1629 0 18.4608 1.29791 18.4608 2.93076V5.10789V21.562V22.9855C18.4608 24.6184 17.1629 25.9163 15.5301 25.9163H9.50107V26H9.4592Z" fill="white"/>
<path d="M20.9727 18.3808V7.83008H24.029C25.2851 7.83008 26.3318 8.87678 26.3318 10.1328V16.0781C26.3318 17.376 25.2851 18.3808 24.029 18.3808H20.9727Z" fill="white"/>
<path d="M0.0397869 11.6379C-0.127685 11.0099 0.249127 10.34 0.877146 10.1725L8.58085 8.16283C9.20887 7.99536 9.87876 8.37217 10.0462 9.00019C10.2137 9.62821 9.83689 10.2981 9.20887 10.4656L1.50517 12.4752C0.877146 12.6427 0.207259 12.2659 0.0397869 11.6379Z" fill="white"/>
<path d="M0.959177 15.6196C0.331158 15.7871 -0.0456537 16.457 0.121818 17.085C0.28929 17.713 0.917309 18.0898 1.5872 17.9642L11.9705 15.2847C12.5985 15.1172 12.9753 14.4473 12.8078 13.8193C12.6403 13.1913 12.0123 12.8145 11.3424 12.9401L0.959177 15.6196Z" fill="white"/>
<path d="M3.51386 20.4303C2.88585 20.5978 2.50903 21.2677 2.67651 21.8957C2.84398 22.5237 3.51386 22.9005 4.14188 22.733L11.5106 20.7234C12.1387 20.5559 12.5155 19.886 12.348 19.258C12.1805 18.63 11.5106 18.2532 10.8826 18.4206L3.51386 20.4303Z" fill="white"/>
</svg>
