<svg width="100" height="36" viewBox="0 0 100 36" fill="none" xmlns="http://www.w3.org/2000/svg">
<path d="M88.2969 20.4889C88.2969 19.4422 88.4643 18.5211 88.7574 17.7256C89.0924 16.9302 89.511 16.2603 90.0553 15.7579C90.5996 15.2136 91.1858 14.8368 91.8557 14.5437C92.5674 14.2925 93.2373 14.125 93.9909 14.125C95.6656 14.125 97.0054 14.6274 97.9684 15.6741C98.9313 16.6789 99.4337 18.2281 99.4337 20.1959C99.4337 22.1636 99.4337 20.6145 99.4337 20.8657C99.4337 21.117 99.4338 21.2844 99.3919 21.4938H91.7719C91.8557 22.2055 92.1906 22.7498 92.7349 23.1266C93.321 23.5453 94.0746 23.7546 95.0376 23.7546C96.0006 23.7546 96.2518 23.7546 96.8379 23.5872C97.4241 23.4616 97.9265 23.336 98.3033 23.1685L98.7639 25.8899C98.5964 25.9736 98.3452 26.0574 98.0521 26.1411C97.759 26.2248 97.4241 26.3086 97.0473 26.3504C96.6705 26.4342 96.2937 26.476 95.875 26.5179C95.4563 26.5598 95.0376 26.6017 94.6189 26.6017C93.5304 26.6017 92.6093 26.4342 91.8138 26.1411C91.0183 25.8062 90.3903 25.3875 89.846 24.8432C89.3436 24.2989 88.9668 23.629 88.6737 22.8754C88.4225 22.1218 88.2969 21.3263 88.2969 20.4471V20.4889ZM96.2099 19.2329C96.2099 18.9398 96.1262 18.6886 96.0424 18.3955C95.9587 18.1443 95.8331 17.8931 95.6656 17.6838C95.4982 17.4744 95.2888 17.307 94.9957 17.1814C94.7445 17.0558 94.4096 16.972 94.0328 16.972C93.656 16.972 93.321 17.0558 93.0698 17.1814C92.8186 17.307 92.5674 17.4744 92.3999 17.6838C92.2325 17.8931 92.065 18.1443 91.9813 18.4374C91.8975 18.6886 91.8138 18.9817 91.7719 19.2748H96.2099V19.2329Z" fill="#0537FF"/>
<path d="M77.7904 8.84961C78.4184 8.84961 78.9627 8.84961 79.3395 9.01708C79.7582 9.14268 80.135 9.22642 80.3862 9.35203L79.8 11.9897C79.5488 11.8641 79.2976 11.8222 79.0046 11.7804C78.7115 11.7385 78.4184 11.6966 78.1253 11.6966C77.8323 11.6966 77.3717 11.6966 77.0786 11.8641C76.8274 11.9897 76.5762 12.1153 76.4087 12.3246C76.2413 12.534 76.1575 12.7433 76.0738 13.0364C76.0319 13.2876 75.9901 13.5807 75.9901 13.9156V14.5018H80.135V17.3069H75.9901V26.3923H72.6406V13.8738C72.6406 12.3246 73.0593 11.1105 73.9385 10.2313C74.8178 9.31016 76.1157 8.89148 77.7904 8.89148V8.84961ZM85.4941 26.3504H82.1447V14.4599H85.4941V26.3504ZM85.7872 11.0267C85.7872 11.6548 85.5778 12.1153 85.1591 12.4921C84.7823 12.8271 84.3218 12.9945 83.7775 12.9945C83.2332 12.9945 82.7727 12.8271 82.354 12.4921C81.9772 12.1153 81.7678 11.6548 81.7678 11.0267C81.7678 10.3987 81.9772 9.93818 82.354 9.56136C82.7727 9.18455 83.2332 9.01708 83.7775 9.01708C84.3218 9.01708 84.7823 9.18455 85.1591 9.56136C85.5778 9.89631 85.7872 10.3987 85.7872 11.0267Z" fill="#0537FF"/>
<path d="M70.0436 26.5626C69.0806 26.5626 68.2851 26.437 67.6571 26.2276C67.071 26.0183 66.5685 25.7671 66.1917 25.4321C65.8568 25.0553 65.6056 24.6366 65.48 24.1342C65.3544 23.6318 65.3125 23.0457 65.3125 22.4176V9.35483L68.6619 8.81055V21.7477C68.6619 22.0408 68.6619 22.3339 68.7457 22.5432C68.7875 22.7944 68.8713 23.0038 68.9969 23.1713C69.1225 23.3387 69.3318 23.4643 69.5412 23.5899C69.7924 23.7155 70.0855 23.7574 70.5041 23.7993L70.0436 26.5626Z" fill="#0537FF"/>
<path d="M51.3281 20.4889C51.3281 19.4422 51.4956 18.5211 51.7887 17.7256C52.1236 16.9302 52.5423 16.2603 53.0866 15.7579C53.6309 15.2136 54.217 14.8368 54.8869 14.5437C55.5987 14.2925 56.2685 14.125 57.0222 14.125C58.6969 14.125 60.0367 14.6274 60.9996 15.6741C61.9626 16.6789 62.465 18.2281 62.465 20.1959C62.465 22.1636 62.465 20.6145 62.465 20.8657C62.465 21.117 62.465 21.2844 62.4231 21.4938H54.8032C54.8869 22.2055 55.2218 22.7498 55.7661 23.1266C56.3523 23.5453 57.1059 23.7546 58.0689 23.7546C59.0318 23.7546 59.283 23.7546 59.8692 23.5872C60.4553 23.4616 60.9578 23.336 61.3346 23.1685L61.7951 25.8899C61.6276 25.9736 61.3764 26.0574 61.0834 26.1411C60.7903 26.2248 60.4553 26.3086 60.0785 26.3504C59.7017 26.4342 59.3249 26.476 58.9062 26.5179C58.4875 26.5598 58.0689 26.6017 57.6502 26.6017C56.5616 26.6017 55.6405 26.4342 54.845 26.1411C54.0495 25.8062 53.4215 25.3875 52.8772 24.8432C52.3748 24.2989 51.998 23.629 51.7049 22.8754C51.4537 22.1218 51.3281 21.3263 51.3281 20.4471V20.4889ZM59.1993 19.2329C59.1993 18.9398 59.1156 18.6886 59.0318 18.3955C58.9481 18.1443 58.8225 17.8931 58.655 17.6838C58.4875 17.4744 58.2782 17.307 57.9851 17.1814C57.7339 17.0558 57.399 16.972 57.0222 16.972C56.6454 16.972 56.3104 17.0558 56.0592 17.1814C55.808 17.307 55.5568 17.4744 55.3893 17.6838C55.2218 17.8931 55.0544 18.1443 54.9706 18.4374C54.8869 18.6886 54.8032 18.9817 54.7613 19.2748H59.1993V19.2329Z" fill="#0537FF"/>
<path d="M44.7133 10.6953H48.2302V26.3539H44.7133V19.6969H38.8099V26.3539H35.293V10.6953H38.8099V16.6824H44.7133V10.6953Z" fill="#0537FF"/>
<path d="M9.4592 31C8.37063 31 7.40767 30.372 6.90526 29.4928L12.0969 28.153C14.0647 27.6506 15.1951 25.6409 14.6927 23.6731C14.5252 23.0451 14.2321 22.5008 13.8135 22.0821C14.9858 21.2448 15.5719 19.6957 15.1951 18.1884C14.8183 16.8068 13.7297 15.8019 12.4318 15.5089C12.6412 14.839 12.683 14.1272 12.5156 13.4155C12.0131 11.4477 10.0035 10.2754 8.07756 10.8196L6.57031 11.1965V7.93076C6.57031 6.29791 7.86822 5 9.50107 5H15.5301C17.1629 5 18.4608 6.29791 18.4608 7.93076V10.1079V26.562V27.9855C18.4608 29.6184 17.1629 30.9163 15.5301 30.9163H9.50107V31H9.4592Z" fill="#0537FF"/>
<path d="M20.9727 23.3808V12.8301H24.029C25.2851 12.8301 26.3318 13.8768 26.3318 15.1328V21.0781C26.3318 22.376 25.2851 23.3808 24.029 23.3808H20.9727Z" fill="#0537FF"/>
<path d="M0.0397869 16.6379C-0.127685 16.0099 0.249127 15.34 0.877146 15.1725L8.58085 13.1628C9.20887 12.9954 9.87876 13.3722 10.0462 14.0002C10.2137 14.6282 9.83689 15.2981 9.20887 15.4656L1.50517 17.4752C0.877146 17.6427 0.207259 17.2659 0.0397869 16.6379Z" fill="#0537FF"/>
<path d="M0.959177 20.6196C0.331158 20.7871 -0.0456537 21.457 0.121818 22.085C0.28929 22.713 0.917309 23.0898 1.5872 22.9642L11.9705 20.2847C12.5985 20.1172 12.9753 19.4473 12.8078 18.8193C12.6403 18.1913 12.0123 17.8145 11.3424 17.9401L0.959177 20.6196Z" fill="#0537FF"/>
<path d="M3.51386 25.4303C2.88585 25.5978 2.50903 26.2677 2.67651 26.8957C2.84398 27.5237 3.51386 27.9005 4.14188 27.733L11.5106 25.7234C12.1387 25.5559 12.5155 24.886 12.348 24.258C12.1805 23.63 11.5106 23.2532 10.8826 23.4206L3.51386 25.4303Z" fill="#0537FF"/>
</svg>
